%TF.GenerationSoftware,KiCad,Pcbnew,9.0.9*%
%TF.CreationDate,2026-05-04T02:54:39+08:00*%
%TF.ProjectId,circuit,63697263-7569-4742-9e6b-696361645f70,v3.0*%
%TF.SameCoordinates,Original*%
%TF.FileFunction,Legend,Top*%
%TF.FilePolarity,Positive*%
%FSLAX46Y46*%
G04 Gerber Fmt 4.6, Leading zero omitted, Abs format (unit mm)*
G04 Created by KiCad (PCBNEW 9.0.9) date 2026-05-04 02:54:39*
%MOMM*%
%LPD*%
G01*
G04 APERTURE LIST*
%ADD10C,0.100000*%
%ADD11C,0.150000*%
%ADD12C,0.120000*%
%ADD13C,0.350000*%
G04 APERTURE END LIST*
D10*
X141000000Y-94000000D02*
X144000000Y-94000000D01*
X81637217Y-118096895D02*
X81256265Y-118096895D01*
X81256265Y-118096895D02*
X81218169Y-118477847D01*
X81218169Y-118477847D02*
X81256265Y-118439752D01*
X81256265Y-118439752D02*
X81332455Y-118401657D01*
X81332455Y-118401657D02*
X81522931Y-118401657D01*
X81522931Y-118401657D02*
X81599122Y-118439752D01*
X81599122Y-118439752D02*
X81637217Y-118477847D01*
X81637217Y-118477847D02*
X81675312Y-118554038D01*
X81675312Y-118554038D02*
X81675312Y-118744514D01*
X81675312Y-118744514D02*
X81637217Y-118820704D01*
X81637217Y-118820704D02*
X81599122Y-118858800D01*
X81599122Y-118858800D02*
X81522931Y-118896895D01*
X81522931Y-118896895D02*
X81332455Y-118896895D01*
X81332455Y-118896895D02*
X81256265Y-118858800D01*
X81256265Y-118858800D02*
X81218169Y-118820704D01*
X81903884Y-118096895D02*
X82170551Y-118896895D01*
X82170551Y-118896895D02*
X82437217Y-118096895D01*
X85561027Y-118134990D02*
X85484837Y-118096895D01*
X85484837Y-118096895D02*
X85370551Y-118096895D01*
X85370551Y-118096895D02*
X85256265Y-118134990D01*
X85256265Y-118134990D02*
X85180075Y-118211180D01*
X85180075Y-118211180D02*
X85141980Y-118287371D01*
X85141980Y-118287371D02*
X85103884Y-118439752D01*
X85103884Y-118439752D02*
X85103884Y-118554038D01*
X85103884Y-118554038D02*
X85141980Y-118706419D01*
X85141980Y-118706419D02*
X85180075Y-118782609D01*
X85180075Y-118782609D02*
X85256265Y-118858800D01*
X85256265Y-118858800D02*
X85370551Y-118896895D01*
X85370551Y-118896895D02*
X85446742Y-118896895D01*
X85446742Y-118896895D02*
X85561027Y-118858800D01*
X85561027Y-118858800D02*
X85599123Y-118820704D01*
X85599123Y-118820704D02*
X85599123Y-118554038D01*
X85599123Y-118554038D02*
X85446742Y-118554038D01*
X85941980Y-118896895D02*
X85941980Y-118096895D01*
X85941980Y-118096895D02*
X86399123Y-118896895D01*
X86399123Y-118896895D02*
X86399123Y-118096895D01*
X86780075Y-118896895D02*
X86780075Y-118096895D01*
X86780075Y-118096895D02*
X86970551Y-118096895D01*
X86970551Y-118096895D02*
X87084837Y-118134990D01*
X87084837Y-118134990D02*
X87161027Y-118211180D01*
X87161027Y-118211180D02*
X87199122Y-118287371D01*
X87199122Y-118287371D02*
X87237218Y-118439752D01*
X87237218Y-118439752D02*
X87237218Y-118554038D01*
X87237218Y-118554038D02*
X87199122Y-118706419D01*
X87199122Y-118706419D02*
X87161027Y-118782609D01*
X87161027Y-118782609D02*
X87084837Y-118858800D01*
X87084837Y-118858800D02*
X86970551Y-118896895D01*
X86970551Y-118896895D02*
X86780075Y-118896895D01*
D11*
X136089048Y-100484819D02*
X136089048Y-101294342D01*
X136089048Y-101294342D02*
X136136667Y-101389580D01*
X136136667Y-101389580D02*
X136184286Y-101437200D01*
X136184286Y-101437200D02*
X136279524Y-101484819D01*
X136279524Y-101484819D02*
X136470000Y-101484819D01*
X136470000Y-101484819D02*
X136565238Y-101437200D01*
X136565238Y-101437200D02*
X136612857Y-101389580D01*
X136612857Y-101389580D02*
X136660476Y-101294342D01*
X136660476Y-101294342D02*
X136660476Y-100484819D01*
X137089048Y-101437200D02*
X137231905Y-101484819D01*
X137231905Y-101484819D02*
X137470000Y-101484819D01*
X137470000Y-101484819D02*
X137565238Y-101437200D01*
X137565238Y-101437200D02*
X137612857Y-101389580D01*
X137612857Y-101389580D02*
X137660476Y-101294342D01*
X137660476Y-101294342D02*
X137660476Y-101199104D01*
X137660476Y-101199104D02*
X137612857Y-101103866D01*
X137612857Y-101103866D02*
X137565238Y-101056247D01*
X137565238Y-101056247D02*
X137470000Y-101008628D01*
X137470000Y-101008628D02*
X137279524Y-100961009D01*
X137279524Y-100961009D02*
X137184286Y-100913390D01*
X137184286Y-100913390D02*
X137136667Y-100865771D01*
X137136667Y-100865771D02*
X137089048Y-100770533D01*
X137089048Y-100770533D02*
X137089048Y-100675295D01*
X137089048Y-100675295D02*
X137136667Y-100580057D01*
X137136667Y-100580057D02*
X137184286Y-100532438D01*
X137184286Y-100532438D02*
X137279524Y-100484819D01*
X137279524Y-100484819D02*
X137517619Y-100484819D01*
X137517619Y-100484819D02*
X137660476Y-100532438D01*
X138422381Y-100961009D02*
X138565238Y-101008628D01*
X138565238Y-101008628D02*
X138612857Y-101056247D01*
X138612857Y-101056247D02*
X138660476Y-101151485D01*
X138660476Y-101151485D02*
X138660476Y-101294342D01*
X138660476Y-101294342D02*
X138612857Y-101389580D01*
X138612857Y-101389580D02*
X138565238Y-101437200D01*
X138565238Y-101437200D02*
X138470000Y-101484819D01*
X138470000Y-101484819D02*
X138089048Y-101484819D01*
X138089048Y-101484819D02*
X138089048Y-100484819D01*
X138089048Y-100484819D02*
X138422381Y-100484819D01*
X138422381Y-100484819D02*
X138517619Y-100532438D01*
X138517619Y-100532438D02*
X138565238Y-100580057D01*
X138565238Y-100580057D02*
X138612857Y-100675295D01*
X138612857Y-100675295D02*
X138612857Y-100770533D01*
X138612857Y-100770533D02*
X138565238Y-100865771D01*
X138565238Y-100865771D02*
X138517619Y-100913390D01*
X138517619Y-100913390D02*
X138422381Y-100961009D01*
X138422381Y-100961009D02*
X138089048Y-100961009D01*
X139850953Y-101103866D02*
X140612858Y-101103866D01*
X141089048Y-100818152D02*
X141850953Y-101103866D01*
X141850953Y-101103866D02*
X141089048Y-101389580D01*
X81716666Y-81984819D02*
X81716666Y-82699104D01*
X81716666Y-82699104D02*
X81669047Y-82841961D01*
X81669047Y-82841961D02*
X81573809Y-82937200D01*
X81573809Y-82937200D02*
X81430952Y-82984819D01*
X81430952Y-82984819D02*
X81335714Y-82984819D01*
X82383333Y-81984819D02*
X82478571Y-81984819D01*
X82478571Y-81984819D02*
X82573809Y-82032438D01*
X82573809Y-82032438D02*
X82621428Y-82080057D01*
X82621428Y-82080057D02*
X82669047Y-82175295D01*
X82669047Y-82175295D02*
X82716666Y-82365771D01*
X82716666Y-82365771D02*
X82716666Y-82603866D01*
X82716666Y-82603866D02*
X82669047Y-82794342D01*
X82669047Y-82794342D02*
X82621428Y-82889580D01*
X82621428Y-82889580D02*
X82573809Y-82937200D01*
X82573809Y-82937200D02*
X82478571Y-82984819D01*
X82478571Y-82984819D02*
X82383333Y-82984819D01*
X82383333Y-82984819D02*
X82288095Y-82937200D01*
X82288095Y-82937200D02*
X82240476Y-82889580D01*
X82240476Y-82889580D02*
X82192857Y-82794342D01*
X82192857Y-82794342D02*
X82145238Y-82603866D01*
X82145238Y-82603866D02*
X82145238Y-82365771D01*
X82145238Y-82365771D02*
X82192857Y-82175295D01*
X82192857Y-82175295D02*
X82240476Y-82080057D01*
X82240476Y-82080057D02*
X82288095Y-82032438D01*
X82288095Y-82032438D02*
X82383333Y-81984819D01*
X89924819Y-92791904D02*
X88924819Y-92791904D01*
X89401009Y-92791904D02*
X89401009Y-92220476D01*
X89924819Y-92220476D02*
X88924819Y-92220476D01*
X89924819Y-91220476D02*
X89924819Y-91791904D01*
X89924819Y-91506190D02*
X88924819Y-91506190D01*
X88924819Y-91506190D02*
X89067676Y-91601428D01*
X89067676Y-91601428D02*
X89162914Y-91696666D01*
X89162914Y-91696666D02*
X89210533Y-91791904D01*
X89924819Y-110791904D02*
X88924819Y-110791904D01*
X89401009Y-110791904D02*
X89401009Y-110220476D01*
X89924819Y-110220476D02*
X88924819Y-110220476D01*
X89020057Y-109791904D02*
X88972438Y-109744285D01*
X88972438Y-109744285D02*
X88924819Y-109649047D01*
X88924819Y-109649047D02*
X88924819Y-109410952D01*
X88924819Y-109410952D02*
X88972438Y-109315714D01*
X88972438Y-109315714D02*
X89020057Y-109268095D01*
X89020057Y-109268095D02*
X89115295Y-109220476D01*
X89115295Y-109220476D02*
X89210533Y-109220476D01*
X89210533Y-109220476D02*
X89353390Y-109268095D01*
X89353390Y-109268095D02*
X89924819Y-109839523D01*
X89924819Y-109839523D02*
X89924819Y-109220476D01*
X81716666Y-105984819D02*
X81716666Y-106699104D01*
X81716666Y-106699104D02*
X81669047Y-106841961D01*
X81669047Y-106841961D02*
X81573809Y-106937200D01*
X81573809Y-106937200D02*
X81430952Y-106984819D01*
X81430952Y-106984819D02*
X81335714Y-106984819D01*
X82097619Y-105984819D02*
X82716666Y-105984819D01*
X82716666Y-105984819D02*
X82383333Y-106365771D01*
X82383333Y-106365771D02*
X82526190Y-106365771D01*
X82526190Y-106365771D02*
X82621428Y-106413390D01*
X82621428Y-106413390D02*
X82669047Y-106461009D01*
X82669047Y-106461009D02*
X82716666Y-106556247D01*
X82716666Y-106556247D02*
X82716666Y-106794342D01*
X82716666Y-106794342D02*
X82669047Y-106889580D01*
X82669047Y-106889580D02*
X82621428Y-106937200D01*
X82621428Y-106937200D02*
X82526190Y-106984819D01*
X82526190Y-106984819D02*
X82240476Y-106984819D01*
X82240476Y-106984819D02*
X82145238Y-106937200D01*
X82145238Y-106937200D02*
X82097619Y-106889580D01*
X81716666Y-97984819D02*
X81716666Y-98699104D01*
X81716666Y-98699104D02*
X81669047Y-98841961D01*
X81669047Y-98841961D02*
X81573809Y-98937200D01*
X81573809Y-98937200D02*
X81430952Y-98984819D01*
X81430952Y-98984819D02*
X81335714Y-98984819D01*
X82145238Y-98080057D02*
X82192857Y-98032438D01*
X82192857Y-98032438D02*
X82288095Y-97984819D01*
X82288095Y-97984819D02*
X82526190Y-97984819D01*
X82526190Y-97984819D02*
X82621428Y-98032438D01*
X82621428Y-98032438D02*
X82669047Y-98080057D01*
X82669047Y-98080057D02*
X82716666Y-98175295D01*
X82716666Y-98175295D02*
X82716666Y-98270533D01*
X82716666Y-98270533D02*
X82669047Y-98413390D01*
X82669047Y-98413390D02*
X82097619Y-98984819D01*
X82097619Y-98984819D02*
X82716666Y-98984819D01*
X81636666Y-89984819D02*
X81636666Y-90699104D01*
X81636666Y-90699104D02*
X81589047Y-90841961D01*
X81589047Y-90841961D02*
X81493809Y-90937200D01*
X81493809Y-90937200D02*
X81350952Y-90984819D01*
X81350952Y-90984819D02*
X81255714Y-90984819D01*
X82636666Y-90984819D02*
X82065238Y-90984819D01*
X82350952Y-90984819D02*
X82350952Y-89984819D01*
X82350952Y-89984819D02*
X82255714Y-90127676D01*
X82255714Y-90127676D02*
X82160476Y-90222914D01*
X82160476Y-90222914D02*
X82065238Y-90270533D01*
X122596666Y-122484819D02*
X122596666Y-123199104D01*
X122596666Y-123199104D02*
X122549047Y-123341961D01*
X122549047Y-123341961D02*
X122453809Y-123437200D01*
X122453809Y-123437200D02*
X122310952Y-123484819D01*
X122310952Y-123484819D02*
X122215714Y-123484819D01*
X123501428Y-122818152D02*
X123501428Y-123484819D01*
X123263333Y-122437200D02*
X123025238Y-123151485D01*
X123025238Y-123151485D02*
X123644285Y-123151485D01*
D12*
%TO.C,J2*%
X75550000Y-86410000D02*
X75550000Y-85030000D01*
X76930000Y-86410000D02*
X75550000Y-86410000D01*
X78200000Y-83650000D02*
X83390000Y-83650000D01*
X78200000Y-86410000D02*
X78200000Y-83650000D01*
X78200000Y-86410000D02*
X83390000Y-86410000D01*
X83390000Y-86410000D02*
X83390000Y-83650000D01*
%TO.C,H1*%
X91580000Y-90980000D02*
X92910000Y-90980000D01*
X91580000Y-92310000D02*
X91580000Y-90980000D01*
X94180000Y-90980000D02*
X142500000Y-90980000D01*
X94180000Y-93640000D02*
X94180000Y-90980000D01*
X94180000Y-93640000D02*
X142500000Y-93640000D01*
X142500000Y-93640000D02*
X142500000Y-90980000D01*
%TO.C,H2*%
X91410000Y-108420000D02*
X92740000Y-108420000D01*
X91410000Y-109750000D02*
X91410000Y-108420000D01*
X94010000Y-108420000D02*
X142330000Y-108420000D01*
X94010000Y-111080000D02*
X94010000Y-108420000D01*
X94010000Y-111080000D02*
X142330000Y-111080000D01*
X142330000Y-111080000D02*
X142330000Y-108420000D01*
%TO.C,J2*%
X75550000Y-110410000D02*
X75550000Y-109030000D01*
X76930000Y-110410000D02*
X75550000Y-110410000D01*
X78200000Y-107650000D02*
X83390000Y-107650000D01*
X78200000Y-110410000D02*
X78200000Y-107650000D01*
X78200000Y-110410000D02*
X83390000Y-110410000D01*
X83390000Y-110410000D02*
X83390000Y-107650000D01*
X75550000Y-102410000D02*
X75550000Y-101030000D01*
X76930000Y-102410000D02*
X75550000Y-102410000D01*
X78200000Y-99650000D02*
X83390000Y-99650000D01*
X78200000Y-102410000D02*
X78200000Y-99650000D01*
X78200000Y-102410000D02*
X83390000Y-102410000D01*
X83390000Y-102410000D02*
X83390000Y-99650000D01*
X75470000Y-94410000D02*
X75470000Y-93030000D01*
X76850000Y-94410000D02*
X75470000Y-94410000D01*
X78120000Y-91650000D02*
X83310000Y-91650000D01*
X78120000Y-94410000D02*
X78120000Y-91650000D01*
X78120000Y-94410000D02*
X83310000Y-94410000D01*
X83310000Y-94410000D02*
X83310000Y-91650000D01*
%TO.C,J7*%
X121780000Y-127030000D02*
X121780000Y-125650000D01*
X123160000Y-127030000D02*
X121780000Y-127030000D01*
X124430000Y-124270000D02*
X129620000Y-124270000D01*
X124430000Y-127030000D02*
X124430000Y-124270000D01*
X124430000Y-127030000D02*
X129620000Y-127030000D01*
X129620000Y-127030000D02*
X129620000Y-124270000D01*
%TD*%
D13*
X135970000Y-125530000D03*
X76970000Y-85030000D03*
X79510000Y-85030000D03*
X82050000Y-85030000D03*
X77970000Y-125530000D03*
X79470000Y-117030000D03*
X76930000Y-117030000D03*
X92840000Y-92140000D03*
X95380000Y-92140000D03*
X97920000Y-92140000D03*
X100460000Y-92140000D03*
X103000000Y-92140000D03*
X105540000Y-92140000D03*
X108080000Y-92140000D03*
X110620000Y-92140000D03*
X113160000Y-92140000D03*
X115700000Y-92140000D03*
X118240000Y-92140000D03*
X120780000Y-92140000D03*
X123320000Y-92140000D03*
X125860000Y-92140000D03*
X128400000Y-92140000D03*
X130940000Y-92140000D03*
X133480000Y-92140000D03*
X136020000Y-92140000D03*
X138560000Y-92140000D03*
X141100000Y-92140000D03*
X92840000Y-118030000D03*
X95380000Y-118030000D03*
X97920000Y-118030000D03*
X100460000Y-118030000D03*
X103000000Y-118030000D03*
X105540000Y-118030000D03*
X108080000Y-118030000D03*
X110620000Y-118030000D03*
X113160000Y-118030000D03*
X115700000Y-118030000D03*
X118240000Y-118030000D03*
X120780000Y-118030000D03*
X123320000Y-118030000D03*
X125860000Y-118030000D03*
X128400000Y-118030000D03*
X130940000Y-118030000D03*
X133480000Y-118030000D03*
X136020000Y-118030000D03*
X138560000Y-118030000D03*
X141100000Y-118030000D03*
X135970000Y-76530000D03*
X92840000Y-109920000D03*
X95380000Y-109920000D03*
X97920000Y-109920000D03*
X100460000Y-109920000D03*
X103000000Y-109920000D03*
X105540000Y-109920000D03*
X108080000Y-109920000D03*
X110620000Y-109920000D03*
X113160000Y-109920000D03*
X115700000Y-109920000D03*
X118240000Y-109920000D03*
X120780000Y-109920000D03*
X123320000Y-109920000D03*
X125860000Y-109920000D03*
X128400000Y-109920000D03*
X130940000Y-109920000D03*
X133480000Y-109920000D03*
X136020000Y-109920000D03*
X138560000Y-109920000D03*
X141100000Y-109920000D03*
X92840000Y-87640000D03*
X95380000Y-87640000D03*
X97920000Y-87640000D03*
X100460000Y-87640000D03*
X103000000Y-87640000D03*
X105540000Y-87640000D03*
X108080000Y-87640000D03*
X110620000Y-87640000D03*
X113160000Y-87640000D03*
X115700000Y-87640000D03*
X118240000Y-87640000D03*
X120780000Y-87640000D03*
X123320000Y-87640000D03*
X125860000Y-87640000D03*
X128400000Y-87640000D03*
X130940000Y-87640000D03*
X133480000Y-87640000D03*
X136020000Y-87640000D03*
X138560000Y-87640000D03*
X141100000Y-87640000D03*
X76970000Y-109030000D03*
X79510000Y-109030000D03*
X82050000Y-109030000D03*
X76970000Y-101030000D03*
X79510000Y-101030000D03*
X82050000Y-101030000D03*
X92840000Y-114420000D03*
X95380000Y-114420000D03*
X97920000Y-114420000D03*
X100460000Y-114420000D03*
X103000000Y-114420000D03*
X105540000Y-114420000D03*
X108080000Y-114420000D03*
X110620000Y-114420000D03*
X113160000Y-114420000D03*
X115700000Y-114420000D03*
X118240000Y-114420000D03*
X120780000Y-114420000D03*
X123320000Y-114420000D03*
X125860000Y-114420000D03*
X128400000Y-114420000D03*
X130940000Y-114420000D03*
X133480000Y-114420000D03*
X136020000Y-114420000D03*
X138560000Y-114420000D03*
X141100000Y-114420000D03*
X92870000Y-84030000D03*
X95410000Y-84030000D03*
X97950000Y-84030000D03*
X100490000Y-84030000D03*
X103030000Y-84030000D03*
X105570000Y-84030000D03*
X108110000Y-84030000D03*
X110650000Y-84030000D03*
X113190000Y-84030000D03*
X115730000Y-84030000D03*
X118270000Y-84030000D03*
X120810000Y-84030000D03*
X123350000Y-84030000D03*
X125890000Y-84030000D03*
X128430000Y-84030000D03*
X130970000Y-84030000D03*
X133510000Y-84030000D03*
X136050000Y-84030000D03*
X138590000Y-84030000D03*
X141130000Y-84030000D03*
X76890000Y-93030000D03*
X79430000Y-93030000D03*
X81970000Y-93030000D03*
X123430000Y-125530000D03*
X125970000Y-125530000D03*
X128510000Y-125530000D03*
X77970000Y-76530000D03*
M02*
