M48
; DRILL file {KiCad 9.0.9} date 2026-05-04T02:53:04+0800
; FORMAT={-:-/ absolute / metric / decimal}
; #@! TF.CreationDate,2026-05-04T02:53:04+08:00
; #@! TF.GenerationSoftware,Kicad,Pcbnew,9.0.9
; #@! TF.FileFunction,Plated,1,2,PTH
FMAT,2
METRIC
; #@! TA.AperFunction,Plated,PTH,ComponentDrill
T1C1.000
; #@! TA.AperFunction,Plated,PTH,ComponentDrill
T2C3.200
%
G90
G05
T1
X76.89Y-93.03
X76.93Y-117.03
X76.97Y-85.03
X76.97Y-101.03
X76.97Y-109.03
X79.43Y-93.03
X79.47Y-117.03
X79.51Y-85.03
X79.51Y-101.03
X79.51Y-109.03
X81.97Y-93.03
X82.05Y-85.03
X82.05Y-101.03
X82.05Y-109.03
X92.84Y-87.64
X92.84Y-92.14
X92.84Y-109.92
X92.84Y-114.42
X92.84Y-118.03
X92.87Y-84.03
X95.38Y-87.64
X95.38Y-92.14
X95.38Y-109.92
X95.38Y-114.42
X95.38Y-118.03
X95.41Y-84.03
X97.92Y-87.64
X97.92Y-92.14
X97.92Y-109.92
X97.92Y-114.42
X97.92Y-118.03
X97.95Y-84.03
X100.46Y-87.64
X100.46Y-92.14
X100.46Y-109.92
X100.46Y-114.42
X100.46Y-118.03
X100.49Y-84.03
X103.0Y-87.64
X103.0Y-92.14
X103.0Y-109.92
X103.0Y-114.42
X103.0Y-118.03
X103.03Y-84.03
X105.54Y-87.64
X105.54Y-92.14
X105.54Y-109.92
X105.54Y-114.42
X105.54Y-118.03
X105.57Y-84.03
X108.08Y-87.64
X108.08Y-92.14
X108.08Y-109.92
X108.08Y-114.42
X108.08Y-118.03
X108.11Y-84.03
X110.62Y-87.64
X110.62Y-92.14
X110.62Y-109.92
X110.62Y-114.42
X110.62Y-118.03
X110.65Y-84.03
X113.16Y-87.64
X113.16Y-92.14
X113.16Y-109.92
X113.16Y-114.42
X113.16Y-118.03
X113.19Y-84.03
X115.7Y-87.64
X115.7Y-92.14
X115.7Y-109.92
X115.7Y-114.42
X115.7Y-118.03
X115.73Y-84.03
X118.24Y-87.64
X118.24Y-92.14
X118.24Y-109.92
X118.24Y-114.42
X118.24Y-118.03
X118.27Y-84.03
X120.78Y-87.64
X120.78Y-92.14
X120.78Y-109.92
X120.78Y-114.42
X120.78Y-118.03
X120.81Y-84.03
X123.32Y-87.64
X123.32Y-92.14
X123.32Y-109.92
X123.32Y-114.42
X123.32Y-118.03
X123.35Y-84.03
X123.43Y-125.53
X125.86Y-87.64
X125.86Y-92.14
X125.86Y-109.92
X125.86Y-114.42
X125.86Y-118.03
X125.89Y-84.03
X125.97Y-125.53
X128.4Y-87.64
X128.4Y-92.14
X128.4Y-109.92
X128.4Y-114.42
X128.4Y-118.03
X128.43Y-84.03
X128.51Y-125.53
X130.94Y-87.64
X130.94Y-92.14
X130.94Y-109.92
X130.94Y-114.42
X130.94Y-118.03
X130.97Y-84.03
X133.48Y-87.64
X133.48Y-92.14
X133.48Y-109.92
X133.48Y-114.42
X133.48Y-118.03
X133.51Y-84.03
X136.02Y-87.64
X136.02Y-92.14
X136.02Y-109.92
X136.02Y-114.42
X136.02Y-118.03
X136.05Y-84.03
X138.56Y-87.64
X138.56Y-92.14
X138.56Y-109.92
X138.56Y-114.42
X138.56Y-118.03
X138.59Y-84.03
X141.1Y-87.64
X141.1Y-92.14
X141.1Y-109.92
X141.1Y-114.42
X141.1Y-118.03
X141.13Y-84.03
T2
X77.97Y-76.53
X77.97Y-125.53
X135.97Y-76.53
X135.97Y-125.53
M30
