%TF.GenerationSoftware,KiCad,Pcbnew,9.0.9*%
%TF.CreationDate,2026-05-04T02:54:39+08:00*%
%TF.ProjectId,circuit,63697263-7569-4742-9e6b-696361645f70,v3.0*%
%TF.SameCoordinates,Original*%
%TF.FileFunction,Soldermask,Top*%
%TF.FilePolarity,Negative*%
%FSLAX46Y46*%
G04 Gerber Fmt 4.6, Leading zero omitted, Abs format (unit mm)*
G04 Created by KiCad (PCBNEW 9.0.9) date 2026-05-04 02:54:39*
%MOMM*%
%LPD*%
G01*
G04 APERTURE LIST*
%ADD10C,0.350000*%
G04 APERTURE END LIST*
D10*
X135970000Y-125530000D03*
X76970000Y-85030000D03*
X79510000Y-85030000D03*
X82050000Y-85030000D03*
X77970000Y-125530000D03*
X79470000Y-117030000D03*
X76930000Y-117030000D03*
X92840000Y-92140000D03*
X95380000Y-92140000D03*
X97920000Y-92140000D03*
X100460000Y-92140000D03*
X103000000Y-92140000D03*
X105540000Y-92140000D03*
X108080000Y-92140000D03*
X110620000Y-92140000D03*
X113160000Y-92140000D03*
X115700000Y-92140000D03*
X118240000Y-92140000D03*
X120780000Y-92140000D03*
X123320000Y-92140000D03*
X125860000Y-92140000D03*
X128400000Y-92140000D03*
X130940000Y-92140000D03*
X133480000Y-92140000D03*
X136020000Y-92140000D03*
X138560000Y-92140000D03*
X141100000Y-92140000D03*
X92840000Y-118030000D03*
X95380000Y-118030000D03*
X97920000Y-118030000D03*
X100460000Y-118030000D03*
X103000000Y-118030000D03*
X105540000Y-118030000D03*
X108080000Y-118030000D03*
X110620000Y-118030000D03*
X113160000Y-118030000D03*
X115700000Y-118030000D03*
X118240000Y-118030000D03*
X120780000Y-118030000D03*
X123320000Y-118030000D03*
X125860000Y-118030000D03*
X128400000Y-118030000D03*
X130940000Y-118030000D03*
X133480000Y-118030000D03*
X136020000Y-118030000D03*
X138560000Y-118030000D03*
X141100000Y-118030000D03*
X135970000Y-76530000D03*
X92840000Y-109920000D03*
X95380000Y-109920000D03*
X97920000Y-109920000D03*
X100460000Y-109920000D03*
X103000000Y-109920000D03*
X105540000Y-109920000D03*
X108080000Y-109920000D03*
X110620000Y-109920000D03*
X113160000Y-109920000D03*
X115700000Y-109920000D03*
X118240000Y-109920000D03*
X120780000Y-109920000D03*
X123320000Y-109920000D03*
X125860000Y-109920000D03*
X128400000Y-109920000D03*
X130940000Y-109920000D03*
X133480000Y-109920000D03*
X136020000Y-109920000D03*
X138560000Y-109920000D03*
X141100000Y-109920000D03*
X92840000Y-87640000D03*
X95380000Y-87640000D03*
X97920000Y-87640000D03*
X100460000Y-87640000D03*
X103000000Y-87640000D03*
X105540000Y-87640000D03*
X108080000Y-87640000D03*
X110620000Y-87640000D03*
X113160000Y-87640000D03*
X115700000Y-87640000D03*
X118240000Y-87640000D03*
X120780000Y-87640000D03*
X123320000Y-87640000D03*
X125860000Y-87640000D03*
X128400000Y-87640000D03*
X130940000Y-87640000D03*
X133480000Y-87640000D03*
X136020000Y-87640000D03*
X138560000Y-87640000D03*
X141100000Y-87640000D03*
X76970000Y-109030000D03*
X79510000Y-109030000D03*
X82050000Y-109030000D03*
X76970000Y-101030000D03*
X79510000Y-101030000D03*
X82050000Y-101030000D03*
X92840000Y-114420000D03*
X95380000Y-114420000D03*
X97920000Y-114420000D03*
X100460000Y-114420000D03*
X103000000Y-114420000D03*
X105540000Y-114420000D03*
X108080000Y-114420000D03*
X110620000Y-114420000D03*
X113160000Y-114420000D03*
X115700000Y-114420000D03*
X118240000Y-114420000D03*
X120780000Y-114420000D03*
X123320000Y-114420000D03*
X125860000Y-114420000D03*
X128400000Y-114420000D03*
X130940000Y-114420000D03*
X133480000Y-114420000D03*
X136020000Y-114420000D03*
X138560000Y-114420000D03*
X141100000Y-114420000D03*
X92870000Y-84030000D03*
X95410000Y-84030000D03*
X97950000Y-84030000D03*
X100490000Y-84030000D03*
X103030000Y-84030000D03*
X105570000Y-84030000D03*
X108110000Y-84030000D03*
X110650000Y-84030000D03*
X113190000Y-84030000D03*
X115730000Y-84030000D03*
X118270000Y-84030000D03*
X120810000Y-84030000D03*
X123350000Y-84030000D03*
X125890000Y-84030000D03*
X128430000Y-84030000D03*
X130970000Y-84030000D03*
X133510000Y-84030000D03*
X136050000Y-84030000D03*
X138590000Y-84030000D03*
X141130000Y-84030000D03*
X76890000Y-93030000D03*
X79430000Y-93030000D03*
X81970000Y-93030000D03*
X123430000Y-125530000D03*
X125970000Y-125530000D03*
X128510000Y-125530000D03*
X77970000Y-76530000D03*
M02*
