%TF.GenerationSoftware,KiCad,Pcbnew,9.0.9*%
%TF.CreationDate,2026-05-04T02:54:39+08:00*%
%TF.ProjectId,circuit,63697263-7569-4742-9e6b-696361645f70,v3.0*%
%TF.SameCoordinates,Original*%
%TF.FileFunction,Copper,L1,Top*%
%TF.FilePolarity,Positive*%
%FSLAX46Y46*%
G04 Gerber Fmt 4.6, Leading zero omitted, Abs format (unit mm)*
G04 Created by KiCad (PCBNEW 9.0.9) date 2026-05-04 02:54:39*
%MOMM*%
%LPD*%
G01*
G04 APERTURE LIST*
%TA.AperFunction,Conductor*%
%ADD10C,0.500000*%
%TD*%
%TA.AperFunction,ComponentPad*%
%ADD11C,6.000000*%
%TD*%
%TA.AperFunction,ComponentPad*%
%ADD12R,1.700000X1.700000*%
%TD*%
%TA.AperFunction,ComponentPad*%
%ADD13C,1.700000*%
%TD*%
%TA.AperFunction,ComponentPad*%
%ADD14C,1.800000*%
%TD*%
%TA.AperFunction,Conductor*%
%ADD15C,0.250000*%
%TD*%
%TA.AperFunction,Conductor*%
%ADD16C,0.800000*%
%TD*%
%ADD17C,0.350000*%
G04 APERTURE END LIST*
D10*
%TO.N,5V_SERVO*%
X79470000Y-117030000D02*
X79470000Y-120030000D01*
X79470000Y-120030000D02*
X82470000Y-122530000D01*
X97970000Y-118030000D02*
X97970000Y-122530000D01*
X97970000Y-122530000D02*
X82470000Y-122530000D01*
%TD*%
D11*
%TO.P,MH4,1*%
%TO.N,GND*%
X135970000Y-125530000D03*
%TD*%
D12*
%TO.P,J2,1*%
%TO.N,GND*%
X76970000Y-85030000D03*
D13*
%TO.P,J2,2*%
%TO.N,5V_SERVO*%
X79510000Y-85030000D03*
%TO.P,J2,3*%
%TO.N,PA0_PWM_FL*%
X82050000Y-85030000D03*
%TD*%
D11*
%TO.P,MH3,1*%
%TO.N,GND*%
X77970000Y-125530000D03*
%TD*%
D14*
%TO.P,J5,1*%
%TO.N,5V_SERVO*%
X79470000Y-117030000D03*
%TO.P,J5,2*%
%TO.N,GND*%
X76930000Y-117030000D03*
%TD*%
D12*
%TO.P,H1,1*%
%TO.N,VBAT*%
X92840000Y-92140000D03*
D13*
%TO.P,H1,2*%
%TO.N,PC13*%
X95380000Y-92140000D03*
%TO.P,H1,3*%
%TO.N,PC14*%
X97920000Y-92140000D03*
%TO.P,H1,4*%
%TO.N,PC15*%
X100460000Y-92140000D03*
%TO.P,H1,5*%
%TO.N,PA0_PWM_FL*%
X103000000Y-92140000D03*
%TO.P,H1,6*%
%TO.N,PA1_PWM_FR*%
X105540000Y-92140000D03*
%TO.P,H1,7*%
%TO.N,PA2_PWM_RL*%
X108080000Y-92140000D03*
%TO.P,H1,8*%
%TO.N,PA3_PWM_RR*%
X110620000Y-92140000D03*
%TO.P,H1,9*%
%TO.N,PA4*%
X113160000Y-92140000D03*
%TO.P,H1,10*%
%TO.N,PA5*%
X115700000Y-92140000D03*
%TO.P,H1,11*%
%TO.N,PA6*%
X118240000Y-92140000D03*
%TO.P,H1,12*%
%TO.N,PA7*%
X120780000Y-92140000D03*
%TO.P,H1,13*%
%TO.N,PB0*%
X123320000Y-92140000D03*
%TO.P,H1,14*%
%TO.N,PB1*%
X125860000Y-92140000D03*
%TO.P,H1,15*%
%TO.N,PB10*%
X128400000Y-92140000D03*
%TO.P,H1,16*%
%TO.N,PB11*%
X130940000Y-92140000D03*
%TO.P,H1,17*%
%TO.N,RST*%
X133480000Y-92140000D03*
%TO.P,H1,18*%
%TO.N,3V3_H1*%
X136020000Y-92140000D03*
%TO.P,H1,19*%
%TO.N,GND*%
X138560000Y-92140000D03*
%TO.P,H1,20*%
X141100000Y-92140000D03*
%TD*%
D14*
%TO.P,B2B,1*%
%TO.N,3V3*%
X92840000Y-118030000D03*
%TO.P,B2B,2*%
%TO.N,GND*%
X95380000Y-118030000D03*
%TO.P,B2B,3*%
%TO.N,5V_SERVO*%
X97920000Y-118030000D03*
%TO.P,B2B,4*%
%TO.N,PB9*%
X100460000Y-118030000D03*
%TO.P,B2B,5*%
%TO.N,PB8*%
X103000000Y-118030000D03*
%TO.P,B2B,6*%
%TO.N,PB7*%
X105540000Y-118030000D03*
%TO.P,B2B,7*%
%TO.N,PB6*%
X108080000Y-118030000D03*
%TO.P,B2B,8*%
%TO.N,PB5*%
X110620000Y-118030000D03*
%TO.P,B2B,9*%
%TO.N,PB4*%
X113160000Y-118030000D03*
%TO.P,B2B,10*%
%TO.N,PB3*%
X115700000Y-118030000D03*
%TO.P,B2B,11*%
%TO.N,PA15*%
X118240000Y-118030000D03*
%TO.P,B2B,12*%
%TO.N,PA12*%
X120780000Y-118030000D03*
%TO.P,B2B,13*%
%TO.N,PA11*%
X123320000Y-118030000D03*
%TO.P,B2B,14*%
%TO.N,PA10_RX*%
X125860000Y-118030000D03*
%TO.P,B2B,15*%
%TO.N,PA9_TX*%
X128400000Y-118030000D03*
%TO.P,B2B,16*%
%TO.N,PA8*%
X130940000Y-118030000D03*
%TO.P,B2B,17*%
%TO.N,PB15*%
X133480000Y-118030000D03*
%TO.P,B2B,18*%
%TO.N,PB14*%
X136020000Y-118030000D03*
%TO.P,B2B,19*%
%TO.N,PB13*%
X138560000Y-118030000D03*
%TO.P,B2B,20*%
%TO.N,PB12*%
X141100000Y-118030000D03*
%TD*%
D11*
%TO.P,MH2,1*%
%TO.N,GND*%
X135970000Y-76530000D03*
%TD*%
D12*
%TO.P,H2,1*%
%TO.N,3V3*%
X92840000Y-109920000D03*
D13*
%TO.P,H2,2*%
%TO.N,GND*%
X95380000Y-109920000D03*
%TO.P,H2,3*%
%TO.N,5V_SERVO*%
X97920000Y-109920000D03*
%TO.P,H2,4*%
%TO.N,PB9*%
X100460000Y-109920000D03*
%TO.P,H2,5*%
%TO.N,PB8*%
X103000000Y-109920000D03*
%TO.P,H2,6*%
%TO.N,PB7*%
X105540000Y-109920000D03*
%TO.P,H2,7*%
%TO.N,PB6*%
X108080000Y-109920000D03*
%TO.P,H2,8*%
%TO.N,PB5*%
X110620000Y-109920000D03*
%TO.P,H2,9*%
%TO.N,PB4*%
X113160000Y-109920000D03*
%TO.P,H2,10*%
%TO.N,PB3*%
X115700000Y-109920000D03*
%TO.P,H2,11*%
%TO.N,PA15*%
X118240000Y-109920000D03*
%TO.P,H2,12*%
%TO.N,PA12*%
X120780000Y-109920000D03*
%TO.P,H2,13*%
%TO.N,PA11*%
X123320000Y-109920000D03*
%TO.P,H2,14*%
%TO.N,PA10_RX*%
X125860000Y-109920000D03*
%TO.P,H2,15*%
%TO.N,PA9_TX*%
X128400000Y-109920000D03*
%TO.P,H2,16*%
%TO.N,PA8*%
X130940000Y-109920000D03*
%TO.P,H2,17*%
%TO.N,PB15*%
X133480000Y-109920000D03*
%TO.P,H2,18*%
%TO.N,PB14*%
X136020000Y-109920000D03*
%TO.P,H2,19*%
%TO.N,PB13*%
X138560000Y-109920000D03*
%TO.P,H2,20*%
%TO.N,PB12*%
X141100000Y-109920000D03*
%TD*%
D14*
%TO.P,B1A,1*%
%TO.N,VBAT*%
X92840000Y-87640000D03*
%TO.P,B1A,2*%
%TO.N,PC13*%
X95380000Y-87640000D03*
%TO.P,B1A,3*%
%TO.N,PC14*%
X97920000Y-87640000D03*
%TO.P,B1A,4*%
%TO.N,PC15*%
X100460000Y-87640000D03*
%TO.P,B1A,5*%
%TO.N,PA0_PWM_FL*%
X103000000Y-87640000D03*
%TO.P,B1A,6*%
%TO.N,PA1_PWM_FR*%
X105540000Y-87640000D03*
%TO.P,B1A,7*%
%TO.N,PA2_PWM_RL*%
X108080000Y-87640000D03*
%TO.P,B1A,8*%
%TO.N,PA3_PWM_RR*%
X110620000Y-87640000D03*
%TO.P,B1A,9*%
%TO.N,PA4*%
X113160000Y-87640000D03*
%TO.P,B1A,10*%
%TO.N,PA5*%
X115700000Y-87640000D03*
%TO.P,B1A,11*%
%TO.N,PA6*%
X118240000Y-87640000D03*
%TO.P,B1A,12*%
%TO.N,PA7*%
X120780000Y-87640000D03*
%TO.P,B1A,13*%
%TO.N,PB0*%
X123320000Y-87640000D03*
%TO.P,B1A,14*%
%TO.N,PB1*%
X125860000Y-87640000D03*
%TO.P,B1A,15*%
%TO.N,PB10*%
X128400000Y-87640000D03*
%TO.P,B1A,16*%
%TO.N,PB11*%
X130940000Y-87640000D03*
%TO.P,B1A,17*%
%TO.N,RST*%
X133480000Y-87640000D03*
%TO.P,B1A,18*%
%TO.N,3V3_H1*%
X136020000Y-87640000D03*
%TO.P,B1A,19*%
%TO.N,GND*%
X138560000Y-87640000D03*
%TO.P,B1A,20*%
X141100000Y-87640000D03*
%TD*%
D12*
%TO.P,J2,1*%
%TO.N,GND*%
X76970000Y-109030000D03*
D13*
%TO.P,J2,2*%
%TO.N,5V_SERVO*%
X79510000Y-109030000D03*
%TO.P,J2,3*%
%TO.N,PA3_PWM_RR*%
X82050000Y-109030000D03*
%TD*%
D12*
%TO.P,J2,1*%
%TO.N,GND*%
X76970000Y-101030000D03*
D13*
%TO.P,J2,2*%
%TO.N,5V_SERVO*%
X79510000Y-101030000D03*
%TO.P,J2,3*%
%TO.N,PA2_PWM_RL*%
X82050000Y-101030000D03*
%TD*%
D14*
%TO.P,B2A,1*%
%TO.N,3V3*%
X92840000Y-114420000D03*
%TO.P,B2A,2*%
%TO.N,GND*%
X95380000Y-114420000D03*
%TO.P,B2A,3*%
%TO.N,5V_SERVO*%
X97920000Y-114420000D03*
%TO.P,B2A,4*%
%TO.N,PB9*%
X100460000Y-114420000D03*
%TO.P,B2A,5*%
%TO.N,PB8*%
X103000000Y-114420000D03*
%TO.P,B2A,6*%
%TO.N,PB7*%
X105540000Y-114420000D03*
%TO.P,B2A,7*%
%TO.N,PB6*%
X108080000Y-114420000D03*
%TO.P,B2A,8*%
%TO.N,PB5*%
X110620000Y-114420000D03*
%TO.P,B2A,9*%
%TO.N,PB4*%
X113160000Y-114420000D03*
%TO.P,B2A,10*%
%TO.N,PB3*%
X115700000Y-114420000D03*
%TO.P,B2A,11*%
%TO.N,PA15*%
X118240000Y-114420000D03*
%TO.P,B2A,12*%
%TO.N,PA12*%
X120780000Y-114420000D03*
%TO.P,B2A,13*%
%TO.N,PA11*%
X123320000Y-114420000D03*
%TO.P,B2A,14*%
%TO.N,PA10_RX*%
X125860000Y-114420000D03*
%TO.P,B2A,15*%
%TO.N,PA9_TX*%
X128400000Y-114420000D03*
%TO.P,B2A,16*%
%TO.N,PA8*%
X130940000Y-114420000D03*
%TO.P,B2A,17*%
%TO.N,PB15*%
X133480000Y-114420000D03*
%TO.P,B2A,18*%
%TO.N,PB14*%
X136020000Y-114420000D03*
%TO.P,B2A,19*%
%TO.N,PB13*%
X138560000Y-114420000D03*
%TO.P,B2A,20*%
%TO.N,PB12*%
X141100000Y-114420000D03*
%TD*%
%TO.P,B1B,1*%
%TO.N,VBAT*%
X92870000Y-84030000D03*
%TO.P,B1B,2*%
%TO.N,PC13*%
X95410000Y-84030000D03*
%TO.P,B1B,3*%
%TO.N,PC14*%
X97950000Y-84030000D03*
%TO.P,B1B,4*%
%TO.N,PC15*%
X100490000Y-84030000D03*
%TO.P,B1B,5*%
%TO.N,PA0_PWM_FL*%
X103030000Y-84030000D03*
%TO.P,B1B,6*%
%TO.N,PA1_PWM_FR*%
X105570000Y-84030000D03*
%TO.P,B1B,7*%
%TO.N,PA2_PWM_RL*%
X108110000Y-84030000D03*
%TO.P,B1B,8*%
%TO.N,PA3_PWM_RR*%
X110650000Y-84030000D03*
%TO.P,B1B,9*%
%TO.N,PA4*%
X113190000Y-84030000D03*
%TO.P,B1B,10*%
%TO.N,PA5*%
X115730000Y-84030000D03*
%TO.P,B1B,11*%
%TO.N,PA6*%
X118270000Y-84030000D03*
%TO.P,B1B,12*%
%TO.N,PA7*%
X120810000Y-84030000D03*
%TO.P,B1B,13*%
%TO.N,PB0*%
X123350000Y-84030000D03*
%TO.P,B1B,14*%
%TO.N,PB1*%
X125890000Y-84030000D03*
%TO.P,B1B,15*%
%TO.N,PB10*%
X128430000Y-84030000D03*
%TO.P,B1B,16*%
%TO.N,PB11*%
X130970000Y-84030000D03*
%TO.P,B1B,17*%
%TO.N,RST*%
X133510000Y-84030000D03*
%TO.P,B1B,18*%
%TO.N,3V3_H1*%
X136050000Y-84030000D03*
%TO.P,B1B,19*%
%TO.N,GND*%
X138590000Y-84030000D03*
%TO.P,B1B,20*%
X141130000Y-84030000D03*
%TD*%
D12*
%TO.P,J2,1*%
%TO.N,GND*%
X76890000Y-93030000D03*
D13*
%TO.P,J2,2*%
%TO.N,5V_SERVO*%
X79430000Y-93030000D03*
%TO.P,J2,3*%
%TO.N,PA1_PWM_FR*%
X81970000Y-93030000D03*
%TD*%
D12*
%TO.P,J7,1*%
%TO.N,GND*%
X123430000Y-125530000D03*
D13*
%TO.P,J7,2*%
%TO.N,PA10_RX*%
X125970000Y-125530000D03*
%TO.P,J7,3*%
%TO.N,PA9_TX*%
X128510000Y-125530000D03*
%TD*%
D11*
%TO.P,MH1,1*%
%TO.N,GND*%
X77970000Y-76530000D03*
%TD*%
D15*
%TO.N,VBAT*%
X92840000Y-92140000D02*
X92840000Y-87640000D01*
X92840000Y-84060000D02*
X92870000Y-84030000D01*
X92840000Y-87640000D02*
X92840000Y-84060000D01*
%TO.N,PC13*%
X95380000Y-84060000D02*
X95410000Y-84030000D01*
X95380000Y-87640000D02*
X95380000Y-84060000D01*
X95380000Y-92140000D02*
X95380000Y-87640000D01*
%TO.N,PC14*%
X97920000Y-92140000D02*
X97920000Y-87640000D01*
X97920000Y-87640000D02*
X97920000Y-84060000D01*
X97920000Y-84060000D02*
X97950000Y-84030000D01*
%TO.N,PC15*%
X100460000Y-92140000D02*
X100460000Y-87640000D01*
X100460000Y-87640000D02*
X100460000Y-84060000D01*
X100460000Y-84060000D02*
X100490000Y-84030000D01*
%TO.N,PA0_PWM_FL*%
X103000000Y-101500000D02*
X102180000Y-102320000D01*
X103000000Y-92140000D02*
X103000000Y-87640000D01*
X103000000Y-92140000D02*
X103000000Y-101500000D01*
X102180000Y-102320000D02*
X90260000Y-102320000D01*
X90260000Y-102320000D02*
X88470000Y-100530000D01*
X103000000Y-87640000D02*
X103000000Y-84060000D01*
X88470000Y-91530000D02*
X81970000Y-85030000D01*
X88470000Y-100530000D02*
X88470000Y-91530000D01*
X103000000Y-84060000D02*
X103030000Y-84030000D01*
%TO.N,PA1_PWM_FR*%
X104450000Y-103550000D02*
X87490000Y-103550000D01*
X105540000Y-92140000D02*
X105540000Y-102460000D01*
X105540000Y-87640000D02*
X105540000Y-84060000D01*
X85970000Y-96990000D02*
X82010000Y-93030000D01*
X87490000Y-103550000D02*
X85970000Y-102030000D01*
X105540000Y-92140000D02*
X105540000Y-87640000D01*
X105540000Y-102460000D02*
X104450000Y-103550000D01*
X85970000Y-102030000D02*
X85970000Y-96990000D01*
X105540000Y-84060000D02*
X105570000Y-84030000D01*
%TO.N,PA2_PWM_RL*%
X108080000Y-87640000D02*
X108080000Y-84060000D01*
X108080000Y-92140000D02*
X108080000Y-87640000D01*
X108080000Y-92140000D02*
X108080000Y-103420000D01*
X108080000Y-84060000D02*
X108110000Y-84030000D01*
X85720000Y-104780000D02*
X81970000Y-101030000D01*
X106720000Y-104780000D02*
X85720000Y-104780000D01*
X108080000Y-103420000D02*
X106720000Y-104780000D01*
%TO.N,PA3_PWM_RR*%
X110620000Y-92140000D02*
X110620000Y-104880000D01*
X109490001Y-106009999D02*
X87490001Y-106009999D01*
X110620000Y-104880000D02*
X109490001Y-106009999D01*
X110620000Y-92140000D02*
X110620000Y-87640000D01*
X84470000Y-109030000D02*
X81970000Y-109030000D01*
X110620000Y-87640000D02*
X110620000Y-84060000D01*
X87490001Y-106009999D02*
X84470000Y-109030000D01*
X110620000Y-84060000D02*
X110650000Y-84030000D01*
%TO.N,PA4*%
X113160000Y-84060000D02*
X113190000Y-84030000D01*
X113160000Y-92140000D02*
X113160000Y-87640000D01*
X113160000Y-87640000D02*
X113160000Y-84060000D01*
%TO.N,PA5*%
X115700000Y-87640000D02*
X115700000Y-84060000D01*
X115700000Y-84060000D02*
X115730000Y-84030000D01*
X115700000Y-92140000D02*
X115700000Y-87640000D01*
%TO.N,PA6*%
X118240000Y-87640000D02*
X118240000Y-84060000D01*
X118240000Y-84060000D02*
X118270000Y-84030000D01*
X118240000Y-92140000D02*
X118240000Y-87640000D01*
%TO.N,PA7*%
X120780000Y-92140000D02*
X120780000Y-87640000D01*
X120780000Y-87640000D02*
X120780000Y-84060000D01*
X120780000Y-84060000D02*
X120810000Y-84030000D01*
%TO.N,PB0*%
X123320000Y-84060000D02*
X123350000Y-84030000D01*
X123320000Y-87640000D02*
X123320000Y-84060000D01*
X123320000Y-92140000D02*
X123320000Y-87640000D01*
%TO.N,PB1*%
X125860000Y-92140000D02*
X125860000Y-87640000D01*
X125860000Y-87640000D02*
X125860000Y-84060000D01*
X125860000Y-84060000D02*
X125890000Y-84030000D01*
%TO.N,PB10*%
X128400000Y-84060000D02*
X128430000Y-84030000D01*
X128400000Y-87640000D02*
X128400000Y-84060000D01*
X128400000Y-92140000D02*
X128400000Y-87640000D01*
%TO.N,PB11*%
X130940000Y-87640000D02*
X130940000Y-84060000D01*
X130940000Y-84060000D02*
X130970000Y-84030000D01*
X130940000Y-92140000D02*
X130940000Y-87640000D01*
%TO.N,RST*%
X133480000Y-87640000D02*
X133480000Y-84060000D01*
X133480000Y-92140000D02*
X133480000Y-87640000D01*
X133480000Y-84060000D02*
X133510000Y-84030000D01*
%TO.N,3V3_H1*%
X136020000Y-87640000D02*
X136020000Y-84060000D01*
X136020000Y-92140000D02*
X136020000Y-87640000D01*
X136020000Y-84060000D02*
X136050000Y-84030000D01*
%TO.N,GND*%
X138560000Y-84060000D02*
X138590000Y-84030000D01*
X141099999Y-84060001D02*
X141130000Y-84030000D01*
%TO.N,3V3*%
X92840000Y-114420000D02*
X92840000Y-118030000D01*
X92840000Y-109920000D02*
X92840000Y-114420000D01*
%TO.N,PB9*%
X100460000Y-114420000D02*
X100460000Y-118030000D01*
X100460000Y-109920000D02*
X100460000Y-114420000D01*
%TO.N,PB8*%
X103000000Y-114420000D02*
X103000000Y-118030000D01*
X103000000Y-109920000D02*
X103000000Y-114420000D01*
%TO.N,PB7*%
X105540000Y-109920000D02*
X105540000Y-114420000D01*
X105540000Y-114420000D02*
X105540000Y-118030000D01*
%TO.N,PB6*%
X108080000Y-109920000D02*
X108080000Y-114420000D01*
X108080000Y-114420000D02*
X108080000Y-118030000D01*
%TO.N,PB5*%
X110620000Y-109920000D02*
X110620000Y-114420000D01*
X110620000Y-114420000D02*
X110620000Y-118030000D01*
%TO.N,PB4*%
X113160000Y-109920000D02*
X113160000Y-114420000D01*
X113160000Y-114420000D02*
X113160000Y-118030000D01*
%TO.N,PB3*%
X115700000Y-114420000D02*
X115700000Y-118030000D01*
X115700000Y-109920000D02*
X115700000Y-114420000D01*
%TO.N,PA15*%
X118240000Y-109920000D02*
X118240000Y-114420000D01*
X118240000Y-114420000D02*
X118240000Y-118030000D01*
%TO.N,PA12*%
X120780000Y-109920000D02*
X120780000Y-114420000D01*
X120780000Y-114420000D02*
X120780000Y-118030000D01*
%TO.N,PA11*%
X123320000Y-114420000D02*
X123320000Y-118030000D01*
X123320000Y-109920000D02*
X123320000Y-114420000D01*
%TO.N,PA10_RX*%
X125860000Y-109920000D02*
X125860000Y-114420000D01*
X125860000Y-114420000D02*
X125860000Y-118030000D01*
X125860000Y-118030000D02*
X125970000Y-118140000D01*
X125970000Y-118140000D02*
X125970000Y-125530000D01*
%TO.N,PA9_TX*%
X128400000Y-118030000D02*
X128510000Y-118140000D01*
X128510000Y-118140000D02*
X128510000Y-125530000D01*
X128400000Y-114420000D02*
X128400000Y-118030000D01*
X128400000Y-109920000D02*
X128400000Y-114420000D01*
%TO.N,PA8*%
X130940000Y-109920000D02*
X130940000Y-114420000D01*
X130940000Y-114420000D02*
X130940000Y-118030000D01*
%TO.N,PB15*%
X133480000Y-109920000D02*
X133480000Y-114420000D01*
X133480000Y-114420000D02*
X133480000Y-118030000D01*
%TO.N,PB14*%
X136020000Y-114420000D02*
X136020000Y-118030000D01*
X136020000Y-109920000D02*
X136020000Y-114420000D01*
%TO.N,PB13*%
X138560000Y-114420000D02*
X138560000Y-118030000D01*
X138560000Y-109920000D02*
X138560000Y-114420000D01*
%TO.N,PB12*%
X141099999Y-118029999D02*
X141099999Y-118030000D01*
X141099999Y-109920000D02*
X141099999Y-118029999D01*
D10*
%TO.N,5V_SERVO*%
X79430000Y-92990000D02*
X79430000Y-85030000D01*
D16*
X79470000Y-93030000D02*
X79430000Y-92990000D01*
D10*
X97920000Y-109920000D02*
X97920000Y-114420000D01*
X79430000Y-85030000D02*
X79430000Y-116990000D01*
X97920000Y-114420000D02*
X97920000Y-118030000D01*
X79430000Y-116990000D02*
X79470000Y-117030000D01*
%TD*%
D17*
X135970000Y-125530000D03*
X76970000Y-85030000D03*
X79510000Y-85030000D03*
X82050000Y-85030000D03*
X77970000Y-125530000D03*
X79470000Y-117030000D03*
X76930000Y-117030000D03*
X92840000Y-92140000D03*
X95380000Y-92140000D03*
X97920000Y-92140000D03*
X100460000Y-92140000D03*
X103000000Y-92140000D03*
X105540000Y-92140000D03*
X108080000Y-92140000D03*
X110620000Y-92140000D03*
X113160000Y-92140000D03*
X115700000Y-92140000D03*
X118240000Y-92140000D03*
X120780000Y-92140000D03*
X123320000Y-92140000D03*
X125860000Y-92140000D03*
X128400000Y-92140000D03*
X130940000Y-92140000D03*
X133480000Y-92140000D03*
X136020000Y-92140000D03*
X138560000Y-92140000D03*
X141100000Y-92140000D03*
X92840000Y-118030000D03*
X95380000Y-118030000D03*
X97920000Y-118030000D03*
X100460000Y-118030000D03*
X103000000Y-118030000D03*
X105540000Y-118030000D03*
X108080000Y-118030000D03*
X110620000Y-118030000D03*
X113160000Y-118030000D03*
X115700000Y-118030000D03*
X118240000Y-118030000D03*
X120780000Y-118030000D03*
X123320000Y-118030000D03*
X125860000Y-118030000D03*
X128400000Y-118030000D03*
X130940000Y-118030000D03*
X133480000Y-118030000D03*
X136020000Y-118030000D03*
X138560000Y-118030000D03*
X141100000Y-118030000D03*
X135970000Y-76530000D03*
X92840000Y-109920000D03*
X95380000Y-109920000D03*
X97920000Y-109920000D03*
X100460000Y-109920000D03*
X103000000Y-109920000D03*
X105540000Y-109920000D03*
X108080000Y-109920000D03*
X110620000Y-109920000D03*
X113160000Y-109920000D03*
X115700000Y-109920000D03*
X118240000Y-109920000D03*
X120780000Y-109920000D03*
X123320000Y-109920000D03*
X125860000Y-109920000D03*
X128400000Y-109920000D03*
X130940000Y-109920000D03*
X133480000Y-109920000D03*
X136020000Y-109920000D03*
X138560000Y-109920000D03*
X141100000Y-109920000D03*
X92840000Y-87640000D03*
X95380000Y-87640000D03*
X97920000Y-87640000D03*
X100460000Y-87640000D03*
X103000000Y-87640000D03*
X105540000Y-87640000D03*
X108080000Y-87640000D03*
X110620000Y-87640000D03*
X113160000Y-87640000D03*
X115700000Y-87640000D03*
X118240000Y-87640000D03*
X120780000Y-87640000D03*
X123320000Y-87640000D03*
X125860000Y-87640000D03*
X128400000Y-87640000D03*
X130940000Y-87640000D03*
X133480000Y-87640000D03*
X136020000Y-87640000D03*
X138560000Y-87640000D03*
X141100000Y-87640000D03*
X76970000Y-109030000D03*
X79510000Y-109030000D03*
X82050000Y-109030000D03*
X76970000Y-101030000D03*
X79510000Y-101030000D03*
X82050000Y-101030000D03*
X92840000Y-114420000D03*
X95380000Y-114420000D03*
X97920000Y-114420000D03*
X100460000Y-114420000D03*
X103000000Y-114420000D03*
X105540000Y-114420000D03*
X108080000Y-114420000D03*
X110620000Y-114420000D03*
X113160000Y-114420000D03*
X115700000Y-114420000D03*
X118240000Y-114420000D03*
X120780000Y-114420000D03*
X123320000Y-114420000D03*
X125860000Y-114420000D03*
X128400000Y-114420000D03*
X130940000Y-114420000D03*
X133480000Y-114420000D03*
X136020000Y-114420000D03*
X138560000Y-114420000D03*
X141100000Y-114420000D03*
X92870000Y-84030000D03*
X95410000Y-84030000D03*
X97950000Y-84030000D03*
X100490000Y-84030000D03*
X103030000Y-84030000D03*
X105570000Y-84030000D03*
X108110000Y-84030000D03*
X110650000Y-84030000D03*
X113190000Y-84030000D03*
X115730000Y-84030000D03*
X118270000Y-84030000D03*
X120810000Y-84030000D03*
X123350000Y-84030000D03*
X125890000Y-84030000D03*
X128430000Y-84030000D03*
X130970000Y-84030000D03*
X133510000Y-84030000D03*
X136050000Y-84030000D03*
X138590000Y-84030000D03*
X141130000Y-84030000D03*
X76890000Y-93030000D03*
X79430000Y-93030000D03*
X81970000Y-93030000D03*
X123430000Y-125530000D03*
X125970000Y-125530000D03*
X128510000Y-125530000D03*
X77970000Y-76530000D03*
M02*
